<svg xmlns="http://www.w3.org/2000/svg" viewBox="0 0 640 360" role="img" aria-label="WIDE-BODY">
<defs><linearGradient id="g" x1="0" x2="1"><stop stop-color="#0f2449"/><stop offset="1" stop-color="#122d63"/></linearGradient><filter id="s" x="-20%" y="-20%" width="140%" height="140%"><feDropShadow dx="0" dy="14" stdDeviation="18" flood-color="#000" flood-opacity=".45"/></filter></defs>
<rect width="640" height="360" rx="34" fill="url(#g)"/><path d="M52 294 C190 248 404 245 586 295" stroke="#2bdef7" stroke-opacity=".22" stroke-width="3" fill="none"/><g filter="url(#s)" transform="translate(4 4)"><path d="M75 175h405c57 0 111 28 153 73l-540 12c-44 0-82-18-93-47 17-22 42-38 75-38z" fill="#f5fdff"/><path d="M285 169l120-125 90 2-76 133z" fill="#9ae8ff"/><path d="M289 257l113 89 85-5-67-87z" fill="#9ae8ff"/><path d="M487 176l101-63 53 3-65 102z" fill="#f5fdff"/><g fill="#07182e"><circle cx="139" cy="193" r="8"/><circle cx="177" cy="193" r="8"/><circle cx="215" cy="193" r="8"/><circle cx="253" cy="193" r="8"/><circle cx="291" cy="193" r="8"/><circle cx="329" cy="193" r="8"/><circle cx="367" cy="193" r="8"/><circle cx="405" cy="193" r="8"/></g><ellipse cx="250" cy="249" rx="26" ry="20" fill="#0a1830"/><ellipse cx="430" cy="246" rx="29" ry="22" fill="#0a1830"/><path d="M49 194l-65-64h63l104 53z" fill="#9ae8ff"/><path d="M73 244l-89 48h102l118-38z" fill="#9ae8ff"/></g>
<text x="34" y="326" fill="#dff8ff" opacity=".9" font-size="23" font-family="Arial, sans-serif" font-weight="700">WIDE-BODY</text></svg>