<svg xmlns="http://www.w3.org/2000/svg" viewBox="0 0 640 360" role="img" aria-label="CARGUEIRO">
<defs><linearGradient id="g" x1="0" x2="1"><stop stop-color="#0f2449"/><stop offset="1" stop-color="#122d63"/></linearGradient><filter id="s" x="-20%" y="-20%" width="140%" height="140%"><feDropShadow dx="0" dy="14" stdDeviation="18" flood-color="#000" flood-opacity=".45"/></filter></defs>
<rect width="640" height="360" rx="34" fill="url(#g)"/><path d="M52 294 C190 248 404 245 586 295" stroke="#2bdef7" stroke-opacity=".22" stroke-width="3" fill="none"/><g filter="url(#s)" transform="translate(4 12)"><path d="M66 155h430c63 0 111 35 141 91l-552 11c-47 0-81-20-84-51 8-30 29-51 65-51z" fill="#eafcff"/><path d="M286 150l132-120 102 2-86 130z" fill="#49e0cf"/><path d="M295 252l125 80 92-5-81-78z" fill="#49e0cf"/><path d="M499 156l103-73 57 4-63 109z" fill="#eafcff"/><rect x="125" y="183" width="172" height="36" rx="8" fill="#082039" opacity=".95"/><rect x="316" y="183" width="116" height="36" rx="8" fill="#082039" opacity=".95"/><ellipse cx="223" cy="243" rx="28" ry="20" fill="#0a1830"/><ellipse cx="391" cy="241" rx="30" ry="22" fill="#0a1830"/><path d="M45 177l-76-72h72l113 52z" fill="#49e0cf"/><path d="M66 237l-95 51h114l126-40z" fill="#49e0cf"/></g>
<text x="34" y="326" fill="#dff8ff" opacity=".9" font-size="23" font-family="Arial, sans-serif" font-weight="700">CARGUEIRO</text></svg>