<svg xmlns="http://www.w3.org/2000/svg" viewBox="0 0 960 420"><defs><linearGradient id="g" x1="0" x2="1"><stop offset="0" stop-color="#dbeafe"/><stop offset=".48" stop-color="#7dd3fc"/><stop offset="1" stop-color="#0f172a"/></linearGradient><filter id="s"><feDropShadow dx="0" dy="12" stdDeviation="14" flood-color="#020617" flood-opacity=".45"/></filter></defs><rect width="960" height="420" rx="36" fill="#07111f"/><g filter="url(#s)"><path d="M134 229c55-40 121-61 198-61h170c46 0 100 9 160 27l142 42c17 5 24 22 10 34-18 16-55 24-111 24H311c-77 0-137-13-177-39-16-10-16-18 0-27Z" fill="url(#g)"/><path d="M471 168 335 77c-16-11-38-6-48 11l-8 13 99 69Z" fill="#38bdf8"/><path d="M478 294 333 360c-19 9-42 1-52-18l-6-12 107-44Z" fill="#60a5fa"/><path d="M646 194 760 94c14-12 35-11 48 2l10 11-72 109Z" fill="#93c5fd"/><path d="M278 208h302" stroke="#f8fafc" stroke-width="9" stroke-linecap="round" opacity=".9"/><circle cx="332" cy="226" r="13" fill="#082f49"/><circle cx="390" cy="226" r="13" fill="#082f49"/><circle cx="448" cy="226" r="13" fill="#082f49"/><circle cx="506" cy="226" r="13" fill="#082f49"/><path d="M173 245c65 19 145 28 242 28h329" stroke="#22d3ee" stroke-width="6" stroke-linecap="round" opacity=".75"/></g><text x="44" y="64" fill="#e0f2fe" font-family="Arial, sans-serif" font-size="31" font-weight="800">EXECUTIVE CHARTER</text><text x="44" y="96" fill="#94a3b8" font-family="Arial, sans-serif" font-size="16">generic temporary asset</text></svg>