<svg xmlns="http://www.w3.org/2000/svg" viewBox="0 0 640 360" role="img" aria-label="TURBOÉLICE">
<defs><linearGradient id="g" x1="0" x2="1"><stop stop-color="#0f2449"/><stop offset="1" stop-color="#122d63"/></linearGradient><filter id="s" x="-20%" y="-20%" width="140%" height="140%"><feDropShadow dx="0" dy="14" stdDeviation="18" flood-color="#000" flood-opacity=".45"/></filter></defs>
<rect width="640" height="360" rx="34" fill="url(#g)"/><path d="M52 294 C190 248 404 245 586 295" stroke="#2bdef7" stroke-opacity=".22" stroke-width="3" fill="none"/><g filter="url(#s)" transform="translate(20 14)"><path d="M132 178h295c43 0 92 17 134 49l-391 10c-39 1-86-17-119-45 23-9 49-14 81-14z" fill="#e9fbff"/><path d="M274 174l83-103 62 2-50 106z" fill="#43bdf1"/><path d="M274 233l83 80 58-4-43-77z" fill="#43bdf1"/><circle cx="221" cy="186" r="12" fill="#08182f"/><circle cx="265" cy="186" r="12" fill="#08182f"/><circle cx="309" cy="186" r="12" fill="#08182f"/><g stroke="#9ff0ff" stroke-width="7" stroke-linecap="round"><path d="M138 173l-30-42"/><path d="M138 173l39-35"/><path d="M138 173l-42 25"/><path d="M138 173l36 38"/></g><path d="M89 184l-50-48h44l77 42z" fill="#43bdf1"/><path d="M121 220l-68 36h76l78-26z" fill="#43bdf1"/></g>
<text x="34" y="326" fill="#dff8ff" opacity=".9" font-size="23" font-family="Arial, sans-serif" font-weight="700">TURBOÉLICE</text></svg>