<svg xmlns="http://www.w3.org/2000/svg" viewBox="0 0 640 360" role="img" aria-label="WIDE-BODY PESADO">
<defs><linearGradient id="g" x1="0" x2="1"><stop stop-color="#0f2449"/><stop offset="1" stop-color="#122d63"/></linearGradient><filter id="s" x="-20%" y="-20%" width="140%" height="140%"><feDropShadow dx="0" dy="14" stdDeviation="18" flood-color="#000" flood-opacity=".45"/></filter></defs>
<rect width="640" height="360" rx="34" fill="url(#g)"/><path d="M52 294 C190 248 404 245 586 295" stroke="#2bdef7" stroke-opacity=".22" stroke-width="3" fill="none"/><g filter="url(#s)" transform="translate(4 1)"><path d="M56 171h432c60 0 115 32 149 82l-566 12c-43 0-76-19-71-51 9-28 28-43 56-43z" fill="#f4fcff"/><path d="M275 166l130-131 105 4-87 137z" fill="#65d6ff"/><path d="M282 262l125 83 98-5-82-83z" fill="#65d6ff"/><path d="M493 172l104-74 58 4-61 111z" fill="#f4fcff"/><g fill="#07182e"><circle cx="122" cy="190" r="8"/><circle cx="159" cy="190" r="8"/><circle cx="196" cy="190" r="8"/><circle cx="233" cy="190" r="8"/><circle cx="270" cy="190" r="8"/><circle cx="307" cy="190" r="8"/><circle cx="344" cy="190" r="8"/><circle cx="381" cy="190" r="8"/><circle cx="418" cy="190" r="8"/></g><ellipse cx="213" cy="252" rx="25" ry="19" fill="#0a1830"/><ellipse cx="335" cy="251" rx="28" ry="21" fill="#0a1830"/><ellipse cx="461" cy="249" rx="30" ry="22" fill="#0a1830"/><path d="M38 192l-69-72h70l112 55z" fill="#65d6ff"/><path d="M57 249l-88 53h108l122-39z" fill="#65d6ff"/></g>
<text x="34" y="326" fill="#dff8ff" opacity=".9" font-size="23" font-family="Arial, sans-serif" font-weight="700">WIDE-BODY PESADO</text></svg>