<svg xmlns="http://www.w3.org/2000/svg" viewBox="0 0 640 360" role="img" aria-label="REGIONAL LEVE">
<defs><linearGradient id="g" x1="0" x2="1"><stop stop-color="#0f2449"/><stop offset="1" stop-color="#122d63"/></linearGradient><filter id="s" x="-20%" y="-20%" width="140%" height="140%"><feDropShadow dx="0" dy="14" stdDeviation="18" flood-color="#000" flood-opacity=".45"/></filter></defs>
<rect width="640" height="360" rx="34" fill="url(#g)"/><path d="M52 294 C190 248 404 245 586 295" stroke="#2bdef7" stroke-opacity=".22" stroke-width="3" fill="none"/><g filter="url(#s)" transform="translate(34 18)"><path d="M145 176h260c30 0 63 16 86 41l-326 7c-31 0-60-12-85-35 18-8 39-13 65-13z" fill="#e9fbff"/><path d="M244 171l68-94 56 1-34 96z" fill="#65d6ff"/><path d="M244 224l69 71 53-2-30-69z" fill="#65d6ff"/><path d="M420 178l75-41 37 1-52 73z" fill="#e9fbff"/><circle cx="171" cy="189" r="10" fill="#08182f"/><circle cx="205" cy="189" r="10" fill="#08182f"/><circle cx="239" cy="189" r="10" fill="#08182f"/><path d="M94 183l-40-38h42l63 34z" fill="#65d6ff"/><path d="M118 213l-59 31h67l61-22z" fill="#65d6ff"/></g>
<text x="34" y="326" fill="#dff8ff" opacity=".9" font-size="23" font-family="Arial, sans-serif" font-weight="700">REGIONAL LEVE</text></svg>