<svg xmlns="http://www.w3.org/2000/svg" viewBox="0 0 640 360" role="img" aria-label="NARROW-BODY">
<defs><linearGradient id="g" x1="0" x2="1"><stop stop-color="#0f2449"/><stop offset="1" stop-color="#122d63"/></linearGradient><filter id="s" x="-20%" y="-20%" width="140%" height="140%"><feDropShadow dx="0" dy="14" stdDeviation="18" flood-color="#000" flood-opacity=".45"/></filter></defs>
<rect width="640" height="360" rx="34" fill="url(#g)"/><path d="M52 294 C190 248 404 245 586 295" stroke="#2bdef7" stroke-opacity=".22" stroke-width="3" fill="none"/><g filter="url(#s)" transform="translate(11 6)"><path d="M105 181h360c49 0 101 22 146 59l-480 11c-38 1-85-16-121-47 26-14 58-23 95-23z" fill="#f0fcff"/><path d="M287 176l100-121 75 2-62 125z" fill="#65d6ff"/><path d="M290 248l94 91 72-4-56-88z" fill="#65d6ff"/><path d="M468 182l91-58 50 2-65 91z" fill="#f0fcff"/><g fill="#07182e"><circle cx="164" cy="195" r="9"/><circle cx="205" cy="195" r="9"/><circle cx="246" cy="195" r="9"/><circle cx="287" cy="195" r="9"/><circle cx="328" cy="195" r="9"/><circle cx="369" cy="195" r="9"/></g><path d="M64 191l-57-57h53l88 48z" fill="#65d6ff"/><path d="M93 234l-80 45h90l98-34z" fill="#65d6ff"/></g>
<text x="34" y="326" fill="#dff8ff" opacity=".9" font-size="23" font-family="Arial, sans-serif" font-weight="700">NARROW-BODY</text></svg>